<?xml version="1.0" encoding="UTF-8"?>
<svg width="165px" height="36px" viewBox="0 0 165 36" version="1.1" xmlns="http://www.w3.org/2000/svg" xmlns:xlink="http://www.w3.org/1999/xlink">
    <!-- Generator: Sketch 41 (35326) - http://www.bohemiancoding.com/sketch -->
    <title>dotts</title>
    <desc>Created with Sketch.</desc>
    <defs></defs>
    <g id="Page-1" stroke="none" stroke-width="1" fill="none" fill-rule="evenodd">
        <g id="Artboard" transform="translate(-85.000000, -478.000000)" fill="#00F9D0">
            <g id="dotts" transform="translate(85.000000, 478.000000)">
                <g id="Group-9">
                    <g id="Group-8">
                        <ellipse id="Oval-Copy-2" cx="4.00051349" cy="4.01709402" rx="4.00051349" ry="4.01709402"></ellipse>
                        <ellipse id="Oval-Copy-3" cx="4.00051349" cy="23.5" rx="4.00051349" ry="4.01709402"></ellipse>
                        <ellipse id="Oval-Copy-4" cx="4.00051349" cy="42.982906" rx="4.00051349" ry="4.01709402"></ellipse>
                    </g>
                    <g id="Group-7" transform="translate(18.811088, 0.000000)">
                        <ellipse id="Oval-Copy-5" cx="4.00051349" cy="4.01709402" rx="4.00051349" ry="4.01709402"></ellipse>
                        <ellipse id="Oval-Copy-6" cx="4.00051349" cy="23.5" rx="4.00051349" ry="4.01709402"></ellipse>
                        <ellipse id="Oval-Copy-7" cx="4.00051349" cy="42.982906" rx="4.00051349" ry="4.01709402"></ellipse>
                    </g>
                    <g id="Group-6" transform="translate(37.622176, 0.000000)">
                        <ellipse id="Oval-Copy-8" cx="4.00051349" cy="4.01709402" rx="4.00051349" ry="4.01709402"></ellipse>
                        <ellipse id="Oval-Copy-9" cx="4.00051349" cy="23.5" rx="4.00051349" ry="4.01709402"></ellipse>
                        <ellipse id="Oval-Copy-10" cx="4.00051349" cy="42.982906" rx="4.00051349" ry="4.01709402"></ellipse>
                    </g>
                    <g id="Group-5" transform="translate(56.433263, 0.000000)">
                        <ellipse id="Oval-Copy-11" cx="4.00051349" cy="4.01709402" rx="4.00051349" ry="4.01709402"></ellipse>
                        <ellipse id="Oval-Copy-12" cx="4.00051349" cy="23.5" rx="4.00051349" ry="4.01709402"></ellipse>
                        <ellipse id="Oval-Copy-13" cx="4.00051349" cy="42.982906" rx="4.00051349" ry="4.01709402"></ellipse>
                    </g>
                    <g id="Group-4" transform="translate(75.244351, 0.000000)">
                        <ellipse id="Oval-Copy-14" cx="4.00051349" cy="4.01709402" rx="4.00051349" ry="4.01709402"></ellipse>
                        <ellipse id="Oval-Copy-15" cx="4.00051349" cy="23.5" rx="4.00051349" ry="4.01709402"></ellipse>
                        <ellipse id="Oval-Copy-16" cx="4.00051349" cy="42.982906" rx="4.00051349" ry="4.01709402"></ellipse>
                    </g>
                    <g id="Group-3" transform="translate(94.055439, 0.000000)">
                        <ellipse id="Oval-Copy-17" cx="4.00051349" cy="4.01709402" rx="4.00051349" ry="4.01709402"></ellipse>
                        <ellipse id="Oval-Copy-18" cx="4.00051349" cy="23.5" rx="4.00051349" ry="4.01709402"></ellipse>
                        <ellipse id="Oval-Copy-19" cx="4.00051349" cy="42.982906" rx="4.00051349" ry="4.01709402"></ellipse>
                    </g>
                    <g id="Group-3-Copy" transform="translate(112.866527, 0.000000)">
                        <ellipse id="Oval-Copy-17" cx="4.00051349" cy="4.01709402" rx="4.00051349" ry="4.01709402"></ellipse>
                        <ellipse id="Oval-Copy-18" cx="4.00051349" cy="23.5" rx="4.00051349" ry="4.01709402"></ellipse>
                        <ellipse id="Oval-Copy-19" cx="4.00051349" cy="42.982906" rx="4.00051349" ry="4.01709402"></ellipse>
                    </g>
                    <g id="Group-3-Copy-2" transform="translate(131.677614, 0.000000)">
                        <ellipse id="Oval-Copy-17" cx="4.00051349" cy="4.01709402" rx="4.00051349" ry="4.01709402"></ellipse>
                        <ellipse id="Oval-Copy-18" cx="4.00051349" cy="23.5" rx="4.00051349" ry="4.01709402"></ellipse>
                        <ellipse id="Oval-Copy-19" cx="4.00051349" cy="42.982906" rx="4.00051349" ry="4.01709402"></ellipse>
                    </g>
                    <g id="Group-3-Copy-3" transform="translate(150.488702, 0.000000)">
                        <ellipse id="Oval-Copy-17" cx="4.00051349" cy="4.01709402" rx="4.00051349" ry="4.01709402"></ellipse>
                        <ellipse id="Oval-Copy-18" cx="4.00051349" cy="23.5" rx="4.00051349" ry="4.01709402"></ellipse>
                        <ellipse id="Oval-Copy-19" cx="4.00051349" cy="42.982906" rx="4.00051349" ry="4.01709402"></ellipse>
                    </g>
                    <g id="Group-3-Copy-4" transform="translate(169.299790, 0.000000)">
                        <ellipse id="Oval-Copy-17" cx="4.00051349" cy="4.01709402" rx="4.00051349" ry="4.01709402"></ellipse>
                        <ellipse id="Oval-Copy-18" cx="4.00051349" cy="23.5" rx="4.00051349" ry="4.01709402"></ellipse>
                        <ellipse id="Oval-Copy-19" cx="4.00051349" cy="42.982906" rx="4.00051349" ry="4.01709402"></ellipse>
                    </g>
                    <g id="Group-3-Copy-5" transform="translate(188.110878, 0.000000)">
                        <ellipse id="Oval-Copy-17" cx="4.00051349" cy="4.01709402" rx="4.00051349" ry="4.01709402"></ellipse>
                        <ellipse id="Oval-Copy-18" cx="4.00051349" cy="23.5" rx="4.00051349" ry="4.01709402"></ellipse>
                        <ellipse id="Oval-Copy-19" cx="4.00051349" cy="42.982906" rx="4.00051349" ry="4.01709402"></ellipse>
                    </g>
                    <g id="Group-3-Copy-6" transform="translate(206.921965, 0.000000)">
                        <ellipse id="Oval-Copy-17" cx="4.00051349" cy="4.01709402" rx="4.00051349" ry="4.01709402"></ellipse>
                        <ellipse id="Oval-Copy-18" cx="4.00051349" cy="23.5" rx="4.00051349" ry="4.01709402"></ellipse>
                        <ellipse id="Oval-Copy-19" cx="4.00051349" cy="42.982906" rx="4.00051349" ry="4.01709402"></ellipse>
                    </g>
                </g>
            </g>
        </g>
    </g>
</svg>